<svg version="1.1" xmlns="http://www.w3.org/2000/svg" xmlns:xlink="http://www.w3.org/1999/xlink" width="70.00898" height="137.73411" viewBox="0,0,70.00898,137.73411"><g transform="translate(-282.21549,-148.19536)"><g data-paper-data="{&quot;isPaintingLayer&quot;:true}" fill-rule="nonzero" stroke="#000000" stroke-width="4" stroke-linejoin="miter" stroke-miterlimit="10" stroke-dasharray="" stroke-dashoffset="0" style="mix-blend-mode: normal"><path d="M350.22448,180.00004c0,16.46067 -13.53195,29.80468 -30.22446,29.80468c-16.69251,0 -30.22446,-13.34401 -30.22446,-29.80468c0,-16.46067 13.53195,-29.80468 30.22446,-29.80468c16.69251,0 30.22446,13.34401 30.22446,29.80468z" fill="#ffffff" stroke-linecap="butt"/><path d="M320.63737,210.60975c0,0 -2.01643,13.30842 -3.09828,20.44863c-1.18983,7.85289 -3.74764,24.7344 -3.74764,24.7344" fill="none" stroke-linecap="round"/><path d="M318.54963,225.45013l-16.65839,11.86625" fill="none" stroke-linecap="round"/><path d="M294.81415,228.61313l23.7325,-7.5305" fill="none" stroke-linecap="round"/><path d="M310.40801,199.66446c0,0 2.31492,-1.32527 7.67819,-1.1018c5.58149,0.23257 4.944,2.7974 4.944,2.7974" fill="none" stroke-linecap="round"/><path d="M339.68076,191.31642l1.40092,-24.78422" fill="none" stroke-linecap="round"/><path d="M336.20923,175.54205l-5.41622,14.24346" fill="none" stroke-linecap="round"/><path d="M345.35721,250.77364c3.71637,9.10402 -6.95795,22.0715 -23.84177,28.96369c-16.88382,6.89218 -33.58357,5.09913 -37.29994,-4.00489c-3.71637,-9.10402 6.95795,-22.0715 23.84176,-28.96369c16.88382,-6.89218 33.58357,-5.09913 37.29995,4.00489z" fill="#ffffff" stroke-linecap="butt"/></g></g></svg>