<svg version="1.1" xmlns="http://www.w3.org/2000/svg" xmlns:xlink="http://www.w3.org/1999/xlink" width="881.57376" height="124.62462" viewBox="0,0,881.57376,124.62462"><g transform="translate(79.57958,-264.83483)"><g data-paper-data="{&quot;isPaintingLayer&quot;:true}" fill-rule="nonzero" stroke-width="0" stroke-linecap="butt" stroke-linejoin="miter" stroke-miterlimit="10" stroke-dasharray="" stroke-dashoffset="0" style="mix-blend-mode: normal"><path d="M-4.5045,389.45946v-94.59459h806.49869v94.59459z" fill="#964b00" stroke="none"/><path d="M-79.57958,302.37237v-37.53754h879.87988v37.53754z" fill="#60ff53" stroke="#000000"/><path d="M42.51006,324.70946c0,7.04163 -6.71573,12.75 -15,12.75c-8.28427,0 -15,-5.70837 -15,-12.75c0,-7.04163 6.71573,-12.75 15,-12.75c8.28427,0 15,5.70837 15,12.75z" fill="#6e3700" stroke="none"/><path d="M105.01006,347.95946c0,5.52285 -5.26065,10 -11.75,10c-6.48935,0 -11.75,-4.47715 -11.75,-10c0,-5.52285 5.26065,-10 11.75,-10c6.48935,0 11.75,4.47715 11.75,10z" fill="#6e3700" stroke="none"/><path d="M210.28779,319.95946c0,-6.07513 -4.81294,-11 -10.75,-11c-5.93706,0 -10.75,4.92487 -10.75,11c0,6.07513 4.81294,11 10.75,11c5.93706,0 10.75,-4.92487 10.75,-11z" fill="#6e3700" stroke="none"/><path d="M319.64143,340.70946c0,5.93706 -6.26801,10.75 -14,10.75c-7.73199,0 -14,-4.81294 -14,-10.75c0,-5.93706 6.26801,-10.75 14,-10.75c7.73199,0 14,4.81294 14,10.75z" fill="#6e3700" stroke="none"/><path d="M754.21599,338.95946c0,4.14214 -6.37994,7.5 -14.25,7.5c-7.87006,0 -14.25,-3.35786 -14.25,-7.5c0,-4.14214 6.37994,-7.5 14.25,-7.5c7.87006,0 14.25,3.35786 14.25,7.5z" fill="#6e3700" stroke="none"/><path d="M370.33288,326.70646c0,7.04163 -6.71573,12.75 -15,12.75c-8.28427,0 -15,-5.70837 -15,-12.75c0,-7.04163 6.71573,-12.75 15,-12.75c8.28427,0 15,5.70837 15,12.75z" fill="#6e3700" stroke="none"/><path d="M432.83288,349.95646c0,5.52285 -5.26065,10 -11.75,10c-6.48935,0 -11.75,-4.47715 -11.75,-10c0,-5.52285 5.26065,-10 11.75,-10c6.48935,0 11.75,4.47715 11.75,10z" fill="#6e3700" stroke="none"/><path d="M538.11061,321.95646c0,-6.07513 -4.81294,-11 -10.75,-11c-5.93706,0 -10.75,4.92487 -10.75,11c0,6.07513 4.81294,11 10.75,11c5.93706,0 10.75,-4.92487 10.75,-11z" fill="#6e3700" stroke="none"/><path d="M647.46425,342.70646c0,5.93706 -6.26802,10.75 -14,10.75c-7.73199,0 -14,-4.81294 -14,-10.75c0,-5.93706 6.26801,-10.75 14,-10.75c7.73199,0 14,4.81294 14,10.75z" fill="#6e3700" stroke="none"/></g></g></svg>