<svg version="1.1" xmlns="http://www.w3.org/2000/svg" xmlns:xlink="http://www.w3.org/1999/xlink" width="80.81178" height="135.41943" viewBox="0,0,80.81178,135.41943"><g transform="translate(-271.41269,-148.19534)"><g data-paper-data="{&quot;isPaintingLayer&quot;:true}" fill-rule="nonzero" stroke="#000000" stroke-width="4" stroke-linejoin="miter" stroke-miterlimit="10" stroke-dasharray="" stroke-dashoffset="0" style="mix-blend-mode: normal"><path d="M350.22447,180.00003c0,16.46067 -13.53195,29.80468 -30.22446,29.80468c-16.69251,0 -30.22446,-13.34401 -30.22446,-29.80468c0,-16.46067 13.53195,-29.80468 30.22446,-29.80468c16.69251,0 30.22446,13.34401 30.22446,29.80468z" fill="#ffffff" stroke-linecap="butt"/><path d="M320.63736,210.60974c0,0 -2.01643,13.30842 -3.09828,20.44863c-1.18983,7.85289 -3.74764,24.7344 -3.74764,24.7344" fill="none" stroke-linecap="round"/><path d="M299.27986,246.78262l16.65839,-11.86625" fill="none" stroke-linecap="round"/><path d="M318.22022,230.87529l-23.7325,7.5305" fill="none" stroke-linecap="round"/><path d="M310.40801,199.66445c0,0 2.31492,-1.32527 7.67819,-1.1018c5.58149,0.23257 4.944,2.7974 4.944,2.7974" fill="none" stroke-linecap="round"/><path d="M339.68075,191.31641l1.40092,-24.78422" fill="none" stroke-linecap="round"/><path d="M336.20922,175.54204l-5.41622,14.24346" fill="none" stroke-linecap="round"/><path d="M338.03739,270.11834c-2.19236,9.58583 -18.38102,14.06067 -36.15838,9.99484c-17.77736,-4.06583 -30.41149,-15.13269 -28.21913,-24.71852c2.19236,-9.58583 18.38101,-14.06068 36.15837,-9.99484c17.77736,4.06583 30.4115,15.13269 28.21914,24.71852z" fill="#ffffff" stroke-linecap="butt"/></g></g></svg>