<svg version="1.1" xmlns="http://www.w3.org/2000/svg" xmlns:xlink="http://www.w3.org/1999/xlink" width="81.39571" height="134.36598" viewBox="0,0,81.39571,134.36598"><g transform="translate(-270.82875,-148.19536)"><g data-paper-data="{&quot;isPaintingLayer&quot;:true}" fill-rule="nonzero" stroke="#000000" stroke-width="4" stroke-linejoin="miter" stroke-miterlimit="10" stroke-dasharray="" stroke-dashoffset="0" style="mix-blend-mode: normal"><path d="M350.22447,180.00004c0,16.46067 -13.53195,29.80468 -30.22446,29.80468c-16.69251,0 -30.22446,-13.34401 -30.22446,-29.80468c0,-16.46067 13.53195,-29.80468 30.22446,-29.80468c16.69251,0 30.22446,13.34401 30.22446,29.80468z" fill="#ffffff" stroke-linecap="butt"/><path d="M320.63736,210.60975c0,0 -2.01643,13.30842 -3.09828,20.44863c-1.18983,7.85289 -3.74764,24.7344 -3.74764,24.7344" fill="none" stroke-linecap="round"/><path d="M315.93825,230.67288l-16.65839,11.86625" fill="none" stroke-linecap="round"/><path d="M318.22022,225.65255l-23.7325,7.5305" fill="none" stroke-linecap="round"/><path d="M310.40801,199.66446c0,0 2.31492,-1.32526 7.67819,-1.10179c5.58149,0.23257 4.944,2.79741 4.944,2.79741" fill="none" stroke-linecap="round"/><path d="M341.08168,166.5322l-1.40093,24.78422" fill="none" stroke-linecap="round"/><path d="M336.20923,175.54206l-5.41623,14.24346" fill="none" stroke-linecap="round"/><path d="M338.86852,262.7565c0,9.83334 -14.78351,17.80484 -33.01988,17.80484c-18.23638,0 -33.01988,-7.9715 -33.01988,-17.80484c0,-9.83334 14.78351,-17.80484 33.01988,-17.80484c18.23638,0 33.01988,7.9715 33.01988,17.80484z" fill="#ffffff" stroke-linecap="butt"/></g></g></svg>