<svg version="1.1" xmlns="http://www.w3.org/2000/svg" xmlns:xlink="http://www.w3.org/1999/xlink" width="75.67167" height="74.6664" viewBox="0,0,75.67167,74.6664"><g transform="translate(-282.16417,-142.6668)"><g data-paper-data="{&quot;isPaintingLayer&quot;:true}" fill-rule="nonzero" stroke="#000000" stroke-width="4" stroke-linejoin="miter" stroke-miterlimit="10" stroke-dasharray="" stroke-dashoffset="0" style="mix-blend-mode: normal"><path d="M355.83584,180c0,19.51399 -16.04425,35.3332 -35.83583,35.3332c-19.79158,0 -35.83583,-15.81921 -35.83583,-35.3332c0,-19.51399 16.04425,-35.3332 35.83583,-35.3332c19.79158,0 35.83583,15.81921 35.83583,35.3332z" fill="#ffffff" stroke-linecap="butt"/><path d="M316.52093,184.29574l23.07172,-1.09865c0,0 3.7859,-1.34345 3.9105,-4.4259c0.07377,-1.82495 -2.81185,-3.6309 -2.81185,-3.6309h-23.43794l11.71897,-9.15545c0,0 -0.74769,-5.72377 -2.2745,-6.99611c-1.39009,-1.15841 -6.51473,-0.32825 -6.51473,-0.32825l-20.87442,20.87442l21.24064,19.04333c0,0 3.96414,2.33409 6.99754,-0.78466c2.44079,-2.50948 -0.0394,-6.17347 -0.0394,-6.17347z" fill="#a60000" stroke-linecap="round"/></g></g></svg>