<svg version="1.1" xmlns="http://www.w3.org/2000/svg" xmlns:xlink="http://www.w3.org/1999/xlink" width="75.67166" height="74.6664" viewBox="0,0,75.67166,74.6664"><g transform="translate(-282.16418,-142.6668)"><g data-paper-data="{&quot;isPaintingLayer&quot;:true}" fill-rule="nonzero" stroke="#000000" stroke-width="4" stroke-linejoin="miter" stroke-miterlimit="10" stroke-dasharray="" stroke-dashoffset="0" style="mix-blend-mode: normal"><path d="M320.00001,144.6668c19.79158,0 35.83583,15.81921 35.83583,35.3332c0,19.51399 -16.04425,35.3332 -35.83583,35.3332c-19.79158,0 -35.83583,-15.81921 -35.83583,-35.3332c0,-19.51399 16.04425,-35.3332 35.83583,-35.3332z" data-paper-data="{&quot;index&quot;:null}" fill="#ffffff" stroke-linecap="butt"/><path d="M323.47909,184.29574l-23.07172,-1.09865c0,0 -3.7859,-1.34345 -3.9105,-4.4259c-0.07377,-1.82495 2.81185,-3.6309 2.81185,-3.6309h23.43794l-11.71897,-9.15545c0,0 0.74769,-5.72377 2.2745,-6.99611c1.39009,-1.15841 6.51473,-0.32825 6.51473,-0.32825l20.87442,20.87442l-21.24064,19.04333c0,0 -3.96414,2.33409 -6.99754,-0.78466c-2.44079,-2.50948 0.0394,-6.17347 0.0394,-6.17347z" data-paper-data="{&quot;index&quot;:null}" fill="#a60000" stroke-linecap="round"/></g></g></svg>