<svg version="1.1" xmlns="http://www.w3.org/2000/svg" xmlns:xlink="http://www.w3.org/1999/xlink" width="75.67166" height="74.6664" viewBox="0,0,75.67166,74.6664"><g transform="translate(-282.16418,-142.6668)"><g data-paper-data="{&quot;isPaintingLayer&quot;:true}" fill-rule="nonzero" stroke="#000000" stroke-width="4" stroke-linejoin="miter" stroke-miterlimit="10" stroke-dasharray="" stroke-dashoffset="0" style="mix-blend-mode: normal"><path d="M355.83584,180c0,19.51399 -16.04425,35.3332 -35.83583,35.3332c-19.79158,0 -35.83583,-15.81921 -35.83583,-35.3332c0,-19.51399 16.04425,-35.3332 35.83583,-35.3332c19.79158,0 35.83583,15.81921 35.83583,35.3332z" fill="#ffffff" stroke-linecap="butt"/><path d="M304.8572,206.0922c0,0 6.52191,-1.82367 7.99826,-3.42304c2.05576,-2.22707 3.18412,-8.6912 3.18412,-8.6912c0,0 5.42229,3.41825 7.19785,6.00089c1.62856,2.36881 3.05266,8.90895 3.05266,8.90895" fill="none" stroke-linecap="round"/><path d="M320,173.24398l-4.19339,20.26806" fill="none" stroke-linecap="round"/><path d="M333.51204,179.06814l-15.8417,6.52305l-11.88127,-9.31865" fill="none" stroke-linecap="round"/><path d="M335.1428,163.92534c0,7.0765 -6.25815,12.81314 -13.97797,12.81314c-7.71982,0 -13.97797,-5.73664 -13.97797,-12.81314c0,-7.0765 6.25815,-12.81314 13.97797,-12.81314c7.71982,0 13.97797,5.73664 13.97797,12.81314z" fill="#ffffff" stroke-linecap="butt"/></g></g></svg>