<svg version="1.1" xmlns="http://www.w3.org/2000/svg" xmlns:xlink="http://www.w3.org/1999/xlink" width="64.44892" height="129.97186" viewBox="0,0,64.44892,129.97186"><g transform="translate(-287.77554,-148.19536)"><g data-paper-data="{&quot;isPaintingLayer&quot;:true}" fill-rule="nonzero" stroke="#000000" stroke-width="4" stroke-linejoin="miter" stroke-miterlimit="10" stroke-dasharray="" stroke-dashoffset="0" style="mix-blend-mode: normal"><path d="M350.22446,180.00004c0,16.46067 -13.53195,29.80468 -30.22446,29.80468c-16.69251,0 -30.22446,-13.34401 -30.22446,-29.80468c0,-16.46067 13.53195,-29.80468 30.22446,-29.80468c16.69251,0 30.22446,13.34401 30.22446,29.80468z" fill="#ffffff" stroke-linecap="butt"/><path d="M320.63735,210.60975c0,0 -2.01643,13.30842 -3.09828,20.44863c-1.18983,7.85289 -3.74764,24.7344 -3.74764,24.7344l-9.68069,19.8779" fill="none" stroke-linecap="round"/><path d="M336.50286,234.05213l-16.65839,-11.86625" data-paper-data="{&quot;index&quot;:null}" fill="none" stroke-linecap="round"/><path d="M316.91453,224.99969l-23.7325,7.5305" fill="none" stroke-linecap="round"/><path d="M309.75517,198.03234c0,0 2.31492,-1.32526 7.67819,-1.10179c5.58149,0.23257 4.944,2.79741 4.944,2.79741" fill="none" stroke-linecap="round"/><path d="M338.79672,169.14356l-1.40093,24.78422" fill="none" stroke-linecap="round"/><path d="M326.5495,190.43835l5.41623,-14.24346" fill="none" stroke-linecap="round"/><path d="M313.545,257.29871l3.97232,18.8685" fill="none" stroke-linecap="round"/></g></g></svg>