<svg version="1.1" xmlns="http://www.w3.org/2000/svg" xmlns:xlink="http://www.w3.org/1999/xlink" width="80.45365" height="136.02352" viewBox="0,0,80.45365,136.02352"><g transform="translate(-271.77083,-148.19536)"><g data-paper-data="{&quot;isPaintingLayer&quot;:true}" fill-rule="nonzero" stroke="#000000" stroke-width="4" stroke-linejoin="miter" stroke-miterlimit="10" stroke-dasharray="" stroke-dashoffset="0" style="mix-blend-mode: normal"><path d="M350.22448,180.00004c0,16.46067 -13.53195,29.80468 -30.22446,29.80468c-16.69251,0 -30.22446,-13.34401 -30.22446,-29.80468c0,-16.46067 13.53195,-29.80468 30.22446,-29.80468c16.69251,0 30.22446,13.34401 30.22446,29.80468z" fill="#ffffff" stroke-linecap="butt"/><path d="M320.63737,210.60975c0,0 -2.01643,13.30842 -3.09828,20.44863c-1.18983,7.85289 -3.74764,24.7344 -3.74764,24.7344" fill="none" stroke-linecap="round"/><path d="M316.91751,228.71435l-16.65839,11.86625" fill="none" stroke-linecap="round"/><path d="M318.22022,225.65255l-23.7325,7.5305" fill="none" stroke-linecap="round"/><path d="M310.40801,199.66446c0,0 2.31492,-1.32527 7.67819,-1.1018c5.58149,0.23257 4.944,2.7974 4.944,2.7974" fill="none" stroke-linecap="round"/><path d="M339.68076,191.31642l1.40092,-24.78422" fill="none" stroke-linecap="round"/><path d="M336.20923,175.54205l-5.41622,14.24346" fill="none" stroke-linecap="round"/><path d="M337.52544,272.07814c-2.77599,9.43337 -19.20856,12.90719 -36.70318,7.75899c-17.49462,-5.1482 -29.42641,-16.9689 -26.65043,-26.40226c2.77599,-9.43337 19.20856,-12.90719 36.70317,-7.75899c17.49462,5.1482 29.42642,16.9689 26.65043,26.40227z" fill="#ffffff" stroke-linecap="butt"/></g></g></svg>